<svg width="27" height="29" viewBox="0 0 27 29" fill="none" xmlns="http://www.w3.org/2000/svg">
<g clip-path="url(#clip0)">
<path d="M8.26348 14.5003H0.84375C0.379687 14.5003 0 14.9081 0 15.4065V17.219C0 17.7175 0.379687 18.1253 0.84375 18.1253H8.34258C9.18105 18.1253 9.9668 18.7427 10.1039 19.6319C10.2779 20.7647 9.46582 21.7503 8.4375 21.7503C7.69395 21.7503 7.06113 21.2292 6.83438 20.5099C6.72363 20.153 6.38086 19.9378 6.03281 19.9378H4.30312C3.78633 19.9378 3.36973 20.4362 3.46465 20.98C3.91816 23.4778 5.9748 25.3753 8.43223 25.3753C11.4434 25.3753 13.848 22.5376 13.4525 19.2241C13.1309 16.4827 10.8316 14.5003 8.26348 14.5003ZM0.84375 12.6878H18.5625C21.7107 12.6878 24.1945 9.58388 23.509 6.07782C23.1082 4.02743 21.5631 2.36786 19.6541 1.93739C16.7326 1.28036 14.1117 3.34775 13.5949 6.21376C13.4947 6.75751 13.9166 7.25028 14.4281 7.25028H16.1578C16.5111 7.25028 16.8486 7.03505 16.9594 6.67821C17.1861 5.95888 17.8189 5.43778 18.5625 5.43778C19.5855 5.43778 20.4029 6.42333 20.2289 7.55614C20.0918 8.4454 19.3113 9.06279 18.4676 9.06279H0.84375C0.379687 9.06279 0 9.4706 0 9.96904V11.7815C0 12.28 0.379687 12.6878 0.84375 12.6878ZM21.0938 14.5003H12.8514C13.8691 15.4405 14.6021 16.6979 14.9502 18.1253H21.0938C22.4912 18.1253 23.625 19.3431 23.625 20.844C23.625 22.345 22.4912 23.5628 21.0938 23.5628C20.1498 23.5628 19.3377 23.002 18.9 22.1808C18.7471 21.8976 18.4412 21.7503 18.1354 21.7503H16.3529C15.7781 21.7503 15.351 22.362 15.5461 22.9454C16.4848 25.8114 19.2639 27.7485 22.3699 27.0405C24.5426 26.5477 26.3303 24.6843 26.8365 22.3563C27.7383 18.2102 24.8115 14.5003 21.0938 14.5003Z" fill="#6AD051"/>
</g>
<defs>
<clipPath id="clip0">
<rect width="27" height="29" fill="white"/>
</clipPath>
</defs>
</svg>
