<svg fill="none" height="24" viewBox="0 0 25 24" width="25" xmlns="http://www.w3.org/2000/svg"><g fill="#f7b200"><path d="m19.8134 11.919c2.8207 0 5.1074-1.325 5.1074-2.9595 0-1.63449-2.2867-2.9595-5.1074-2.9595s-5.1073 1.32501-5.1073 2.9595c0 1.6345 2.2866 2.9595 5.1073 2.9595z"/><path clip-rule="evenodd" d="m19.8891 13.6213c-3.6529 0-5.1074-1.5615-5.1074-2.466v3.8745c0 1.635 2.2868 2.958 5.1074 2.958 2.8235 0 5.1103-1.323 5.1103-2.958v-3.7815c0 .906-1.4559 2.373-5.1103 2.373z" fill-rule="evenodd"/><path clip-rule="evenodd" d="m19.8891 19.6078c-3.2677 0-5.1074-1.5015-5.1074-2.406v3.8385c0 1.635 2.2868 2.9595 5.1074 2.9595 2.8235 0 5.1103-1.3245 5.1103-2.9595v-3.885c0 .9045-1.8412 2.4525-5.1103 2.4525z" fill-rule="evenodd"/><path d="m7.26041 5.919c3.19759 0 5.78969-1.32501 5.78969-2.9595s-2.5921-2.9595-5.78969-2.9595c-3.19757 0-5.78971 1.32501-5.78971 2.9595s2.59214 2.9595 5.78971 2.9595z"/><g clip-rule="evenodd" fill-rule="evenodd"><path d="m7.44351 7.62127c-4.1397 0-5.7897-1.5615-5.7897-2.466v3.8745c0 1.63503 2.59264 2.95803 5.7897 2.95803 3.19999 0 5.79119-1.323 5.79119-2.95803v-3.7815c0 .906-1.6515 2.373-5.79119 2.373z"/><path d="m7.44351 13.6078c-3.70441 0-5.7897-1.5015-5.7897-2.406v3.8385c0 1.635 2.59264 2.9595 5.7897 2.9595 3.19999 0 5.79119-1.3245 5.79119-2.9595v-3.885c0 .9045-2.0882 2.4525-5.79119 2.4525z"/><path d="m7.44351 19.6078c-3.70441 0-5.7897-1.5015-5.7897-2.406v3.8385c0 1.635 2.59264 2.9595 5.7897 2.9595 3.19999 0 5.79119-1.3245 5.79119-2.9595v-3.885c0 .9045-2.0882 2.4525-5.79119 2.4525z"/></g></g></svg>